<svg width="1200" height="720" viewBox="0 0 1200 720" fill="none" xmlns="http://www.w3.org/2000/svg">
  <rect width="1200" height="720" rx="52" fill="#46A302"/>
  <circle cx="986" cy="126" r="82" fill="#FFC800" fill-opacity="0.28"/>
  <circle cx="196" cy="118" r="62" fill="#FFFFFF" fill-opacity="0.1"/>
  <path d="M178 544C178 433.543 267.543 344 378 344H822C932.457 344 1022 433.543 1022 544V610H178V544Z" fill="#FFFFFF" fill-opacity="0.08"/>
  <rect x="294" y="216" width="612" height="324" rx="34" fill="#FFFFFF" fill-opacity="0.1" stroke="#FFFFFF" stroke-opacity="0.18" stroke-width="10"/>
  <path d="M420 458L530 340L630 418L748 288L828 362" stroke="#FFC800" stroke-width="18" stroke-linecap="round" stroke-linejoin="round"/>
  <circle cx="420" cy="458" r="18" fill="#FFC800"/>
  <circle cx="530" cy="340" r="18" fill="#FFFFFF"/>
  <circle cx="630" cy="418" r="18" fill="#1CB0F6"/>
  <circle cx="748" cy="288" r="18" fill="#CE82FF"/>
  <circle cx="828" cy="362" r="18" fill="#58CC02"/>
  <path d="M546 168C546 122.713 582.713 86 628 86C673.287 86 710 122.713 710 168C710 213.287 673.287 250 628 250C582.713 250 546 213.287 546 168Z" fill="#FFFFFF" fill-opacity="0.16"/>
  <path d="M598 164C598 147.431 611.431 134 628 134C644.569 134 658 147.431 658 164V196H598V164Z" fill="#FFC800"/>
  <circle cx="628" cy="126" r="24" fill="#FFC800"/>
  <rect x="478" y="560" width="244" height="28" rx="14" fill="#D7FFB8"/>
  <rect x="522" y="596" width="156" height="18" rx="9" fill="#FFFFFF" fill-opacity="0.5"/>
</svg>