<svg width="960" height="720" viewBox="0 0 960 720" fill="none" xmlns="http://www.w3.org/2000/svg">
  <rect width="960" height="720" rx="48" fill="#F0FFE0"/>
  <circle cx="127" cy="112" r="44" fill="#FFC800" fill-opacity="0.45"/>
  <circle cx="816" cy="128" r="54" fill="#CE82FF" fill-opacity="0.28"/>
  <circle cx="802" cy="584" r="66" fill="#1CB0F6" fill-opacity="0.18"/>
  <rect x="118" y="116" width="724" height="430" rx="34" fill="#FFFFFF" stroke="#E5E5E5" stroke-width="14"/>
  <rect x="156" y="154" width="648" height="292" rx="24" fill="#D7FFB8"/>
  <rect x="156" y="154" width="648" height="72" rx="24" fill="#58CC02"/>
  <circle cx="205" cy="190" r="10" fill="#FFFFFF" fill-opacity="0.9"/>
  <circle cx="241" cy="190" r="10" fill="#FFFFFF" fill-opacity="0.6"/>
  <circle cx="277" cy="190" r="10" fill="#FFFFFF" fill-opacity="0.3"/>
  <rect x="208" y="270" width="218" height="120" rx="22" fill="#FFFFFF"/>
  <circle cx="318" cy="316" r="38" fill="#58CC02" fill-opacity="0.12"/>
  <circle cx="318" cy="304" r="22" fill="#FFC800"/>
  <path d="M277 356C277 333.356 295.356 315 318 315C340.644 315 359 333.356 359 356V365H277V356Z" fill="#1CB0F6"/>
  <rect x="470" y="270" width="210" height="24" rx="12" fill="#58CC02" fill-opacity="0.25"/>
  <rect x="470" y="316" width="244" height="18" rx="9" fill="#AFAFAF" fill-opacity="0.4"/>
  <rect x="470" y="350" width="192" height="18" rx="9" fill="#AFAFAF" fill-opacity="0.28"/>
  <rect x="208" y="472" width="188" height="26" rx="13" fill="#58CC02"/>
  <rect x="422" y="472" width="188" height="26" rx="13" fill="#1CB0F6"/>
  <rect x="636" y="472" width="112" height="26" rx="13" fill="#FFC800"/>
  <rect x="298" y="548" width="364" height="34" rx="17" fill="#46A302"/>
  <rect x="334" y="582" width="292" height="26" rx="13" fill="#58CC02"/>
  <rect x="432" y="58" width="96" height="34" rx="17" fill="#FFFFFF" stroke="#E5E5E5" stroke-width="8"/>
  <path d="M470 76H489L499 90L509 76H528" stroke="#58CC02" stroke-width="10" stroke-linecap="round" stroke-linejoin="round"/>
  <path d="M754 266C754 249.431 767.431 236 784 236H836C852.569 236 866 249.431 866 266V316C866 332.569 852.569 346 836 346H784C767.431 346 754 332.569 754 316V266Z" fill="#FFFFFF" stroke="#E5E5E5" stroke-width="10"/>
  <path d="M792 284L830 306L792 328V284Z" fill="#58CC02"/>
  <rect x="84" y="568" width="176" height="92" rx="28" fill="#FFFFFF" stroke="#E5E5E5" stroke-width="10"/>
  <text x="128" y="622" fill="#58CC02" font-family="Nunito, Arial, sans-serif" font-size="34" font-weight="800">LIVE</text>
  <rect x="712" y="96" width="154" height="82" rx="26" fill="#FFFFFF" stroke="#E5E5E5" stroke-width="10"/>
  <text x="744" y="147" fill="#3C3C3C" font-family="Nunito, Arial, sans-serif" font-size="30" font-weight="800">Quran</text>
</svg>